# Blender v2.67 (sub 0) OBJ File: ''
# www.blender.org
mtllib skybox.mtl
o Cube
v -1000.000000 -1000.000000 1000.000000
v -1000.000000 -1000.000000 -1000.000000
v 1000.000000 -1000.000000 -1000.000000
v 1000.000000 -1000.000000 1000.000000
v -1000.000000 1000.000000 1000.000000
v -1000.000000 1000.000000 -1000.000000
v 1000.000000 1000.000000 -1000.000000
v 1000.000000 1000.000000 1000.000000
vt 0.000087 0.250044
vt 0.250043 0.250043
vt 0.250043 0.500000
vt 0.250043 0.749957
vt 0.500000 0.500000
vt 0.749957 0.500000
vt 0.749957 0.250043
vt 0.500000 0.000087
vt 0.500000 0.250043
vt 0.250043 0.000087
vt 0.999913 0.250043
vt 0.999913 0.499999
vt 0.000087 0.500000
vt 0.500001 0.749957
vn 1.000000 0.000000 0.000000
vn 0.000000 -0.000000 1.000000
vn -1.000000 0.000000 -0.000000
vn 0.000000 0.000000 -1.000000
vn 0.000000 1.000000 -0.000000
vn 0.000000 -1.000000 0.000000
usemtl Material
s off
f 5/1/1 1/2/1 2/3/1
f 6/4/2 2/3/2 3/5/2
f 7/6/3 3/5/3 8/7/3
f 8/8/4 4/9/4 5/10/4
f 1/2/5 4/9/5 3/5/5
f 8/7/6 5/11/6 6/12/6
f 6/13/1 5/1/1 2/3/1
f 7/14/2 6/4/2 3/5/2
f 3/5/3 4/9/3 8/7/3
f 4/9/4 1/2/4 5/10/4
f 2/3/5 1/2/5 3/5/5
f 7/6/6 8/7/6 6/12/6
