# Blender v2.67 (sub 0) OBJ File: 'stadtzentrum.blend'
# www.blender.org
mtllib stadtzentrum.mtl
o Cube_Cube.001
v -1.000000 -1.000000 1.000000
v -1.000000 -1.000000 -1.000000
v 1.000000 -1.000000 -1.000000
v 1.000000 -1.000000 1.000000
v -1.000000 1.000000 1.000000
v -1.000000 1.000000 -1.000000
v 1.000000 1.000000 -1.000000
v 1.000000 1.000000 1.000000
vt 0.665022 0.330679
vt 0.335988 0.331688
vt 0.664012 0.001645
vt 0.002655 0.331688
vt 0.001645 0.002655
vt 0.331688 0.330679
vt 0.331688 0.664012
vt 0.002655 0.665022
vt 0.001645 0.335988
vt 0.335988 0.665022
vt 0.334979 0.335988
vt 0.664012 0.334979
vt 0.998355 0.330679
vt 0.669321 0.331688
vt 0.668312 0.002655
vt 0.668312 0.335988
vt 0.997345 0.334979
vt 0.998355 0.664012
vt 0.334979 0.002655
vt 0.330679 0.001645
vt 0.330679 0.334979
vt 0.665022 0.664012
vt 0.997345 0.001645
vt 0.669321 0.665021
vn -1.000000 0.000000 0.000000
vn 0.000000 0.000000 -1.000000
vn 1.000000 -0.000000 0.000000
vn 0.000000 0.000000 1.000000
vn 0.000000 -1.000000 0.000000
vn 0.000000 1.000000 0.000000
usemtl Material.004
s off
f 5/1/1 6/2/1 1/3/1
f 6/4/2 7/5/2 2/6/2
f 7/7/3 8/8/3 4/9/3
f 8/10/4 5/11/4 1/12/4
f 1/13/5 2/14/5 3/15/5
f 8/16/6 7/17/6 6/18/6
f 6/2/1 2/19/1 1/3/1
f 7/5/2 3/20/2 2/6/2
f 3/21/3 7/7/3 4/9/3
f 4/22/4 8/10/4 1/12/4
f 4/23/5 1/13/5 3/15/5
f 5/24/6 8/16/6 6/18/6
