# Blender v2.67 (sub 0) OBJ File: 'mars city house.blend'
# www.blender.org
mtllib house.mtl
o Cube.001
v 1.449954 0.000000 0.500000
v 1.449954 0.000000 1.461717
v 0.488237 0.000000 1.461717
v 0.488237 0.000000 0.500000
v 1.449954 0.961717 0.500000
v 1.449954 0.961717 1.461717
v 0.488237 0.961717 1.461717
v 0.488237 0.961717 0.500000
v 0.969095 0.961717 1.461717
v 0.969095 0.000000 1.461717
v 0.969096 0.961717 0.500000
v 0.969096 0.000000 0.500000
v 1.449954 1.442575 0.500000
v 1.449954 1.442575 1.461717
v -0.473480 0.000000 0.980858
v -0.473480 0.961717 0.980858
v 0.969096 0.961717 -0.461717
v 0.969096 0.000000 -0.461717
v 0.969095 1.442575 1.461717
v 0.969096 1.442575 0.500000
v 0.488237 0.000000 -0.461717
v 0.969095 0.000000 0.980859
v 0.488237 0.000000 0.980859
v 0.488237 0.961717 0.980859
v 1.449954 0.000000 0.980859
v 1.449954 0.961717 0.980859
v 0.488237 1.442575 1.461717
v 0.488237 1.442575 0.500000
v 1.449954 1.442575 0.980859
v 0.488237 0.961717 -0.461717
v 0.969095 1.442575 0.980859
v 0.488237 1.442575 0.980859
v -0.473480 0.961717 0.500000
v -0.473480 0.000000 0.500000
v -0.473480 0.000000 -0.461717
v -0.473480 0.961717 -0.461717
vt 0.699743 0.499571
vt 0.600238 0.499876
vt 0.599628 0.300868
vt 0.100086 0.599381
vt 0.000582 0.599075
vt 0.100696 0.400372
vt 0.499571 0.799247
vt 0.400067 0.798941
vt 0.400677 0.599933
vt 0.100086 0.299705
vt 0.000582 0.300010
vt 0.000276 0.200506
vt 0.599628 0.799552
vt 0.699132 0.799247
vt 0.599933 0.899056
vt 0.199590 0.599686
vt 0.199590 0.299399
vt 0.199285 0.199895
vt 0.398293 0.199285
vt 0.100391 0.399209
vt 0.000887 0.399514
vt 0.599075 0.799552
vt 0.598770 0.899056
vt 0.000276 0.698579
vt 0.899304 0.699743
vt 0.899609 0.799247
vt 0.800105 0.799552
vt 0.799247 0.499266
vt 0.799552 0.598770
vt 0.798636 0.798942
vt 0.798026 0.599933
vt 0.699132 0.300563
vt 0.099781 0.200200
vt 0.199895 0.398904
vt 0.800105 0.300868
vt 0.999113 0.300257
vt 0.999724 0.499266
vt 0.998808 0.699437
vt 0.999113 0.798941
vt 0.898998 0.600238
vt 0.799800 0.700048
vt 0.199285 0.699190
vt 0.998503 0.599933
vt 0.699437 0.898751
vt 0.699132 0.100696
vt 0.698827 0.001192
vt 0.897835 0.000582
vt 0.700048 0.599075
vt 0.598770 0.100391
vt 0.698274 0.100696
vt 0.697663 0.299705
vt 0.499266 0.898751
vt 0.400067 0.599380
vt 0.399762 0.499876
vt 0.599075 0.598770
vt 0.001192 0.899362
vt 0.000582 0.700353
vt 0.200200 0.898751
vt 0.099170 0.001192
vt 0.599075 0.000887
vt 0.399762 0.099781
vt 0.198674 0.000887
vt 0.399151 0.300868
vt 0.598770 0.499266
vt 0.699742 0.299705
vt 0.898140 0.100086
vt 0.399151 0.298789
vt 0.001192 0.400067
vt 0.500182 0.600238
vt 0.200200 0.400677
vt 0.398598 0.298789
vt 0.099781 0.698885
vt 0.698522 0.600238
vt 0.798636 0.300257
vt 0.800715 0.499876
vt 0.799494 0.600544
vt 0.798941 0.898446
vt 0.600544 0.599381
vt 0.598159 0.299399
vt 0.399762 0.898446
vt 0.199590 0.699743
vt 0.400067 0.000276
vt 0.397683 0.000276
vt 0.598159 0.300257
vt 0.898751 0.299094
vn 1.000000 -0.000000 0.000000
vn -0.000000 0.000000 1.000000
vn 0.000000 0.000000 -1.000000
vn 0.000000 -1.000000 0.000000
vn -1.000000 0.000000 -0.000000
vn 0.000000 1.000000 0.000000
usemtl Material.001
s off
f 26/1/1 6/2/1 2/3/1
f 9/4/2 7/5/2 10/6/2
f 11/7/3 5/8/3 1/9/3
f 22/10/4 10/11/4 3/12/4
f 8/13/5 24/14/5 28/15/5
f 6/16/2 9/4/2 10/6/2
f 12/17/4 4/18/4 21/19/4
f 25/20/4 2/21/4 10/11/4
f 11/7/3 8/22/3 28/23/3
f 7/5/2 9/4/2 27/24/2
f 31/25/6 19/26/6 14/27/6
f 26/1/1 5/28/1 13/29/1
f 7/30/5 24/14/5 3/31/5
f 5/28/1 26/1/1 25/32/1
f 12/17/4 22/10/4 23/33/4
f 1/34/4 25/20/4 22/10/4
f 11/35/1 12/36/1 18/37/1
f 32/38/6 27/39/6 19/26/6
f 20/40/6 31/25/6 29/41/6
f 9/4/2 6/16/2 14/42/2
f 28/43/6 32/38/6 31/25/6
f 24/14/5 7/30/5 32/44/5
f 30/45/3 17/46/3 18/47/3
f 6/2/1 26/1/1 29/48/1
f 8/49/6 11/50/6 17/51/6
f 5/8/3 11/7/3 20/52/3
f 16/53/5 33/54/5 15/55/5
f 23/56/2 24/57/2 15/58/2
f 4/18/4 23/33/4 15/59/4
f 24/60/6 8/49/6 33/61/6
f 21/19/4 4/18/4 34/62/4
f 33/54/5 36/63/5 34/64/5
f 36/65/3 30/45/3 21/66/3
f 36/67/6 33/61/6 8/49/6
f 25/32/1 26/1/1 2/3/1
f 7/5/2 3/68/2 10/6/2
f 12/69/3 11/7/3 1/9/3
f 23/33/4 22/10/4 3/12/4
f 24/14/5 32/44/5 28/15/5
f 2/70/2 6/16/2 10/6/2
f 18/71/4 12/17/4 21/19/4
f 22/10/4 25/20/4 10/11/4
f 20/52/3 11/7/3 28/23/3
f 9/4/2 19/72/2 27/24/2
f 29/41/6 31/25/6 14/27/6
f 29/48/1 26/1/1 13/29/1
f 24/14/5 23/73/5 3/31/5
f 1/74/1 5/28/1 25/32/1
f 4/18/4 12/17/4 23/33/4
f 12/17/4 1/34/4 22/10/4
f 17/75/1 11/35/1 18/37/1
f 31/25/6 32/38/6 19/26/6
f 13/76/6 20/40/6 29/41/6
f 19/72/2 9/4/2 14/42/2
f 20/40/6 28/43/6 31/25/6
f 7/30/5 27/77/5 32/44/5
f 21/66/3 30/45/3 18/47/3
f 14/78/1 6/2/1 29/48/1
f 30/79/6 8/49/6 17/51/6
f 13/80/3 5/8/3 20/52/3
f 33/54/5 34/64/5 15/55/5
f 24/57/2 16/81/2 15/58/2
f 34/62/4 4/18/4 15/59/4
f 16/82/6 24/60/6 33/61/6
f 35/83/4 21/19/4 34/62/4
f 36/63/5 35/84/5 34/64/5
f 35/85/3 36/65/3 21/66/3
f 30/79/6 36/67/6 8/49/6
