# Blender v2.67 (sub 0) OBJ File: 'terrain.blend'
# www.blender.org
mtllib terrain.mtl
o Sphere
v -663.649841 -0.000092 -0.908115
v -2186.264160 -402.895813 -0.908011
v -650.897949 -0.000092 -130.379852
v -2144.255371 -402.896057 -427.427094
v -613.132446 -0.000092 -254.876083
v -2019.844482 -402.896057 -837.555115
v -551.804504 -0.000092 -369.612427
v -1817.811890 -402.896057 -1215.531494
v -469.271057 -0.000092 -470.179718
v -1545.921753 -402.896057 -1546.830444
v -368.703735 -0.000092 -552.713135
v -1214.622681 -402.896057 -1818.720459
v -253.967377 -0.000092 -614.040894
v -836.646545 -402.896057 -2020.752930
v -129.471176 -0.000092 -651.806335
v -426.518372 -402.896057 -2145.163818
v 0.000542 -0.000092 -664.558167
v 0.000664 -402.896057 -2187.172119
v 129.472260 -0.000092 -651.806335
v 426.519653 -402.896057 -2145.163818
v 253.968399 -0.000092 -614.040771
v 836.647827 -402.896057 -2020.752808
v 368.704681 -0.000092 -552.712891
v 1214.624023 -402.896057 -1818.720337
v 469.271942 -0.000092 -470.179413
v 1545.923096 -402.896057 -1546.830078
v 551.805298 -0.000092 -369.612183
v 1817.812988 -402.896057 -1215.531006
v 613.133057 -0.000092 -254.875870
v 2019.845215 -402.896057 -837.554749
v 650.898560 -0.000092 -130.379684
v 2144.256348 -402.896057 -427.426758
v 663.650330 -0.000092 -0.908025
v 2186.264404 -402.896057 -0.907747
v 650.898499 -0.000092 128.563660
v 2144.256104 -402.896057 425.611176
v 613.132996 -0.000092 253.059784
v 2019.844727 -402.896057 835.739380
v 551.805115 -0.000092 367.796051
v 1817.812378 -402.896057 1213.715454
v 469.271698 -0.000092 468.363312
v 1545.922241 -402.896057 1545.014282
v 368.704498 -0.000092 550.896667
v 1214.623291 -402.896057 1816.903931
v 253.968170 -0.000092 612.224426
v 836.647034 -402.896057 2018.936401
v 129.472031 -0.000092 649.989868
v 426.519012 -402.896057 2143.347412
v 0.000348 -0.000092 662.741699
v 0.000136 -402.896057 2185.355713
v -129.471298 -0.000092 649.989807
v -426.518738 -402.896057 2143.347168
v -253.967453 -0.000092 612.224304
v -836.646667 -402.896057 2018.935791
v -3158.516602 -888.322998 627.359741
v -2975.258057 -888.322998 1231.484253
v -368.703705 -0.000092 550.896484
v -1214.622559 -402.896057 1816.903198
v -2677.661621 -888.322998 1788.248169
v -2277.164062 -888.322998 2276.256104
v -1789.156494 -888.322998 2676.753906
v -1232.392578 -888.322998 2974.350830
v -628.268311 -888.322998 3157.609863
v -0.000016 -888.322998 3219.489014
v -469.270874 -0.000092 468.363068
v -1545.921387 -402.896057 1545.013306
v 628.268372 -888.322998 3157.610596
v 1232.392578 -888.322998 2974.351562
v 1789.156982 -888.322998 2676.755127
v 2277.165283 -888.322998 2276.257568
v 2677.663330 -888.322998 1788.249634
v 2975.259521 -888.322998 1231.485474
v -551.804260 -0.000092 367.795898
v -1817.811157 -402.896057 1213.714478
v 3158.519531 -888.322998 627.360962
v 3220.398438 -888.322998 -0.907441
v 3158.520020 -888.322998 -629.176025
v 2975.260254 -888.322998 -1233.300293
v 2677.664062 -888.322998 -1790.064697
v 2277.166504 -888.322998 -2278.072754
v -613.132019 -0.000092 253.059586
v -2019.843506 -402.896057 835.738464
v 1789.158081 -888.322998 -2678.571045
v 1232.393921 -888.322998 -2976.167480
v 628.269287 -888.322998 -3159.427002
v 0.000762 -888.322998 -3221.305908
v -628.267822 -888.322998 -3159.427002
v -1232.392456 -888.322998 -2976.167969
v -650.897522 -0.000092 128.563446
v -2144.254150 -402.896057 425.610352
v -1789.156616 -888.322998 -2678.571289
v -2277.164795 -888.322998 -2278.073242
v -2677.662598 -888.322998 -1790.065430
v -2975.259521 -888.322998 -1233.300781
v -3158.518555 -888.322998 -629.176453
v -3220.397705 -888.322754 -0.907829
v -1424.957031 -144.392578 -0.908063
v -1397.576782 -144.392700 -278.903473
v -1316.488403 -144.392700 -546.215637
v -1184.808105 -144.392700 -792.572021
v -1007.596375 -144.392700 -1008.505066
v -791.663147 -144.392700 -1185.716797
v -545.307007 -144.392700 -1317.396851
v -277.994751 -144.392700 -1398.485107
v 0.000603 -144.392700 -1425.865234
v 277.995972 -144.392700 -1398.485107
v 545.308105 -144.392700 -1317.396729
v 791.664368 -144.392700 -1185.716553
v 1007.597473 -144.392700 -1008.504639
v 1184.809204 -144.392700 -792.571594
v 1316.489136 -144.392700 -546.215393
v 1397.577393 -144.392700 -278.903229
v 1424.957397 -144.392700 -0.907886
v 1397.577271 -144.392700 277.087433
v 1316.488892 -144.392700 544.399536
v 1184.808838 -144.392700 790.755676
v 1007.596924 -144.392700 1006.688843
v 791.663879 -144.392700 1183.900391
v 545.307556 -144.392700 1315.580444
v 277.995514 -144.392700 1396.668701
v 0.000242 -144.392700 1424.048706
v -277.995026 -144.392700 1396.668457
v -545.307068 -144.392700 1315.580078
v -791.663147 -144.392700 1183.899780
v -1007.596008 -144.392700 1006.688293
v -1184.807617 -144.392700 790.755249
v -1316.487793 -144.392700 544.398987
v -1397.575928 -144.392700 277.086914
vt -220.739273 0.499955
vt -102.538490 0.500000
vt -216.488129 43.661572
vt -100.558502 20.601784
vt -203.898422 85.164551
vt -94.695190 39.931152
vt -183.453674 123.413979
vt -85.173386 57.745255
vt -155.939697 156.939850
vt -72.359192 73.359177
vt -122.413872 184.453827
vt -56.745041 86.173447
vt -84.164604 204.898499
vt -38.931156 95.695236
vt -42.661552 217.488312
vt -19.601727 101.558662
vt 0.500119 221.739258
vt 0.500119 103.538315
vt 20.602024 101.558662
vt 43.661751 217.488312
vt 39.931274 95.695236
vt 85.164764 204.898499
vt 57.745255 86.173279
vt 123.414017 184.453735
vt 73.359406 73.359177
vt 156.939987 156.939850
vt 86.173447 57.745071
vt 184.453766 123.413887
vt 95.695175 39.931152
vt 204.898529 85.164551
vt 101.558594 20.601784
vt 217.488190 43.661572
vt 103.538605 0.499911
vt 221.739365 0.499911
vt 101.558594 -19.601784
vt 217.488190 -42.661701
vt 95.695175 -38.931122
vt 204.898438 -84.164719
vt 86.173447 -56.745232
vt 184.453766 -122.414093
vt 73.359222 -72.359261
vt 156.939804 -155.939865
vt 57.745255 -85.173477
vt 123.413933 -183.453827
vt 39.931091 -94.695190
vt 85.164581 -203.898483
vt 20.601845 -100.558746
vt 43.661659 -216.488358
vt 0.500119 -102.538551
vt 0.500119 -220.739334
vt -42.661552 -216.488281
vt -19.601727 -100.558746
vt -84.164604 -203.898438
vt -38.931156 -94.695190
vt -122.413872 -183.453766
vt -56.745041 -85.173477
vt -155.939606 -155.939774
vt -72.359024 -72.359261
vt -183.453568 -122.413956
vt -85.173218 -56.745136
vt -203.898254 -84.164619
vt -94.695023 -38.931122
vt -216.488022 -42.661617
vt -332.417542 -65.721451
vt -338.940063 0.499911
vt -499.500000 0.499911
vt 282.734100 189.082703
vt 314.101868 130.397949
vt 462.439819 191.841522
vt -332.417755 66.721359
vt 130.398254 314.101746
vt 189.082779 282.734192
vt 278.285309 416.234833
vt 66.721474 333.417969
vt 191.841827 462.439819
vt 0.500119 339.940186
vt 98.045387 490.892731
vt -313.101654 130.397949
vt -281.733948 189.082703
vt -461.439697 191.841690
vt -281.733917 -188.082779
vt -313.101471 -129.398117
vt -415.234558 -277.285004
vt -239.520203 -239.520294
vt -353.053192 -353.053345
vt 240.520569 240.520508
vt 416.234985 278.285217
vt 339.940125 0.499911
vt 333.417786 -65.721619
vt 490.892639 -97.045326
vt 333.417786 66.721359
vt 500.500000 0.499911
vt 189.082611 -281.734192
vt 130.398071 -313.101776
vt 191.841614 -461.439941
vt -239.520203 240.520508
vt -188.082703 282.734192
vt -353.053345 354.053406
vt 282.734100 -188.082947
vt 240.520386 -239.520477
vt 354.053467 -353.053528
vt 0.500119 -338.940125
vt -65.721382 -332.417816
vt 0.500119 -499.500000
vt 314.101685 -129.398315
vt 462.439819 -190.841888
vt 66.721474 -332.417969
vt -489.892578 98.045090
vt 278.285095 -415.234924
vt -415.234741 278.285217
vt 98.045197 -489.892822
vt 354.053711 354.053223
vt -65.721382 333.417969
vt -97.044968 490.892731
vt -100.558502 -19.601784
vt -129.398056 314.101746
vt -190.841614 462.439819
vt -277.284973 416.234833
vt -188.082703 -281.734070
vt -277.284882 -415.234833
vt -129.398056 -313.101685
vt -190.841614 -461.439819
vt -97.045151 -489.892639
vt -461.439423 -190.841736
vt -489.892334 -97.045151
vt 0.500119 500.500000
vt 490.892639 98.045090
vt 416.234863 -277.285309
vn -0.258614 0.965972 0.000000
vn -0.099368 0.995025 0.000000
vn -0.253639 0.965972 -0.050447
vn -0.097446 0.995025 -0.019379
vn -0.238929 0.965972 -0.098972
vn -0.091800 0.995025 -0.038026
vn -0.215033 0.965972 -0.143681
vn -0.082614 0.995025 -0.055208
vn -0.182867 0.965972 -0.182867
vn -0.070254 0.995025 -0.070254
vn -0.143681 0.965972 -0.215033
vn -0.055208 0.995025 -0.082614
vn -0.098972 0.965972 -0.238929
vn -0.038026 0.995025 -0.091800
vn -0.050447 0.965972 -0.253639
vn -0.019379 0.995025 -0.097446
vn 0.000000 0.965972 -0.258614
vn 0.000000 0.995025 -0.099368
vn 0.019379 0.995025 -0.097446
vn 0.050447 0.965972 -0.253639
vn 0.038026 0.995025 -0.091800
vn 0.098972 0.965972 -0.238929
vn 0.055208 0.995025 -0.082614
vn 0.143681 0.965972 -0.215033
vn 0.070254 0.995025 -0.070254
vn 0.182867 0.965972 -0.182867
vn 0.082614 0.995025 -0.055208
vn 0.215033 0.965972 -0.143681
vn 0.091800 0.995025 -0.038026
vn 0.238929 0.965972 -0.098972
vn 0.097446 0.995025 -0.019379
vn 0.253639 0.965972 -0.050447
vn 0.099368 0.995025 0.000000
vn 0.258614 0.965972 0.000000
vn 0.097446 0.995025 0.019379
vn 0.253639 0.965972 0.050447
vn 0.091800 0.995025 0.038026
vn 0.238929 0.965972 0.098972
vn 0.082614 0.995025 0.055208
vn 0.215033 0.965972 0.143681
vn 0.070254 0.995025 0.070254
vn 0.182867 0.965972 0.182867
vn 0.055208 0.995025 0.082614
vn 0.143681 0.965972 0.215033
vn 0.038026 0.995025 0.091800
vn 0.098972 0.965972 0.238929
vn 0.019379 0.995025 0.097446
vn 0.050447 0.965972 0.253639
vn 0.000000 0.995025 0.099368
vn 0.000000 0.965972 0.258614
vn -0.050447 0.965972 0.253639
vn -0.019379 0.995025 0.097446
vn -0.098972 0.965972 0.238929
vn -0.038026 0.995025 0.091800
vn -0.143681 0.965972 0.215033
vn -0.055208 0.995025 0.082614
vn -0.182867 0.965972 0.182867
vn -0.070254 0.995025 0.070254
vn -0.215033 0.965972 0.143681
vn -0.082614 0.995025 0.055208
vn -0.238929 0.965972 0.098972
vn -0.091800 0.995025 0.038026
vn -0.253639 0.965972 0.050447
vn -0.369549 0.926298 0.073489
vn -0.376782 0.926298 0.000000
vn -0.424909 0.905209 0.000000
vn 0.313273 0.926298 -0.209326
vn 0.348094 0.926298 -0.144169
vn 0.392560 0.905209 -0.162603
vn -0.369549 0.926298 -0.073489
vn 0.144169 0.926298 -0.348094
vn 0.209326 0.926298 -0.313273
vn 0.236061 0.905209 -0.353282
vn 0.073489 0.926298 -0.369549
vn 0.162603 0.905209 -0.392560
vn 0.000000 0.926298 -0.376782
vn 0.082888 0.905209 -0.416730
vn -0.348094 0.926298 -0.144169
vn -0.313273 0.926298 -0.209326
vn -0.392560 0.905209 -0.162603
vn -0.313273 0.926298 0.209326
vn -0.348094 0.926298 0.144169
vn -0.353282 0.905209 0.236061
vn -0.266427 0.926298 0.266427
vn -0.300455 0.905209 0.300455
vn 0.266427 0.926298 -0.266427
vn 0.353282 0.905209 -0.236061
vn 0.376782 0.926298 0.000000
vn 0.369549 0.926298 0.073489
vn 0.416730 0.905209 0.082888
vn 0.369549 0.926298 -0.073489
vn 0.424909 0.905209 0.000000
vn 0.209326 0.926298 0.313273
vn 0.144169 0.926298 0.348094
vn 0.162603 0.905209 0.392560
vn -0.266427 0.926298 -0.266427
vn -0.209326 0.926298 -0.313273
vn -0.300455 0.905209 -0.300455
vn 0.313273 0.926298 0.209326
vn 0.266427 0.926298 0.266427
vn 0.300455 0.905209 0.300455
vn 0.000000 0.926298 0.376782
vn -0.073489 0.926298 0.369549
vn 0.000000 0.905209 0.424909
vn 0.348094 0.926298 0.144169
vn 0.392560 0.905209 0.162603
vn 0.073489 0.926298 0.369549
vn -0.416730 0.905209 -0.082888
vn 0.236061 0.905209 0.353282
vn -0.353282 0.905209 -0.236061
vn 0.082888 0.905209 0.416730
vn 0.300455 0.905209 -0.300455
vn -0.073489 0.926298 -0.369549
vn -0.082888 0.905209 -0.416730
vn -0.097446 0.995025 0.019379
vn -0.144169 0.926298 -0.348094
vn -0.162603 0.905209 -0.392560
vn -0.236061 0.905209 -0.353282
vn -0.209326 0.926298 0.313273
vn -0.236061 0.905209 0.353282
vn -0.144169 0.926298 0.348094
vn -0.162603 0.905209 0.392560
vn -0.082888 0.905209 0.416730
vn -0.392560 0.905209 0.162603
vn -0.416730 0.905209 0.082888
vn 0.000000 0.905209 -0.424909
vn 0.416730 0.905209 -0.082888
vn 0.353282 0.905209 0.236061
usemtl Material.001
s 1
f 97/1/1 1/2/2 98/3/3
f 98/3/3 3/4/4 99/5/5
f 99/5/5 5/6/6 100/7/7
f 100/7/7 7/8/8 101/9/9
f 101/9/9 9/10/10 102/11/11
f 102/11/11 11/12/12 103/13/13
f 103/13/13 13/14/14 104/15/15
f 104/15/15 15/16/16 105/17/17
f 105/17/17 17/18/18 19/19/19
f 106/20/20 19/19/19 21/21/21
f 107/22/22 21/21/21 23/23/23
f 108/24/24 23/23/23 25/25/25
f 109/26/26 25/25/25 27/27/27
f 110/28/28 27/27/27 29/29/29
f 111/30/30 29/29/29 31/31/31
f 112/32/32 31/31/31 33/33/33
f 113/34/34 33/33/33 35/35/35
f 114/36/36 35/35/35 37/37/37
f 115/38/38 37/37/37 39/39/39
f 116/40/40 39/39/39 41/41/41
f 117/42/42 41/41/41 43/43/43
f 118/44/44 43/43/43 45/45/45
f 119/46/46 45/45/45 47/47/47
f 120/48/48 47/47/47 49/49/49
f 121/50/50 49/49/49 122/51/51
f 122/51/51 51/52/52 123/53/53
f 123/53/53 53/54/54 124/55/55
f 124/55/55 57/56/56 125/57/57
f 125/57/57 65/58/58 126/59/59
f 126/59/59 73/60/60 127/61/61
f 127/61/61 81/62/62 128/63/63
f 90/64/64 2/65/65 96/66/66
f 28/67/67 30/68/68 78/69/69
f 2/65/65 4/70/70 96/66/66
f 22/71/71 24/72/72 83/73/73
f 20/74/74 22/71/71 84/75/75
f 18/76/76 20/74/74 85/77/77
f 6/78/78 8/79/79 94/80/80
f 74/81/81 82/82/82 59/83/83
f 66/84/84 74/81/81 60/85/85
f 26/86/86 28/67/67 79/87/87
f 34/88/88 36/89/89 75/90/90
f 32/91/91 34/88/88 76/92/92
f 30/68/68 32/91/91 78/69/69
f 44/93/93 46/94/94 68/95/95
f 10/96/96 12/97/97 92/98/98
f 40/99/99 42/100/100 70/101/101
f 50/102/102 52/103/103 64/104/104
f 38/105/105 40/99/99 72/106/106
f 48/107/107 50/102/102 64/104/104
f 36/89/89 38/105/105 72/106/106
f 4/70/70 6/78/78 95/108/108
f 42/100/100 44/93/93 69/109/109
f 8/79/79 10/96/96 93/110/110
f 46/94/94 48/107/107 67/111/111
f 24/72/72 26/86/86 80/112/112
f 16/113/113 18/76/76 87/114/114
f 128/63/63 89/115/115 97/1/1
f 14/116/116 16/113/113 88/117/117
f 12/97/97 14/116/116 91/118/118
f 58/119/119 66/84/84 61/120/120
f 54/121/121 58/119/119 62/122/122
f 52/103/103 54/121/121 63/123/123
f 5/6/6 3/4/4 7/8/8
f 82/82/82 90/64/64 56/124/124
f 2/65/65 97/1/1 4/70/70
f 4/70/70 98/3/3 6/78/78
f 6/78/78 99/5/5 8/79/79
f 8/79/79 100/7/7 10/96/96
f 10/96/96 101/9/9 12/97/97
f 12/97/97 102/11/11 14/116/116
f 14/116/116 103/13/13 16/113/113
f 16/113/113 104/15/15 18/76/76
f 18/76/76 105/17/17 106/20/20
f 20/74/74 106/20/20 107/22/22
f 22/71/71 107/22/22 108/24/24
f 24/72/72 108/24/24 109/26/26
f 26/86/86 109/26/26 110/28/28
f 28/67/67 110/28/28 111/30/30
f 30/68/68 111/30/30 112/32/32
f 32/91/91 112/32/32 113/34/34
f 34/88/88 113/34/34 114/36/36
f 36/89/89 114/36/36 115/38/38
f 38/105/105 115/38/38 116/40/40
f 40/99/99 116/40/40 117/42/42
f 42/100/100 117/42/42 118/44/44
f 44/93/93 118/44/44 119/46/46
f 46/94/94 119/46/46 120/48/48
f 48/107/107 120/48/48 121/50/50
f 50/102/102 121/50/50 52/103/103
f 52/103/103 122/51/51 54/121/121
f 54/121/121 123/53/53 58/119/119
f 58/119/119 124/55/55 66/84/84
f 66/84/84 125/57/57 74/81/81
f 74/81/81 126/59/59 82/82/82
f 82/82/82 127/61/61 90/64/64
f 90/64/64 128/63/63 2/65/65
f 1/2/2 3/4/4 98/3/3
f 3/4/4 5/6/6 99/5/5
f 5/6/6 7/8/8 100/7/7
f 7/8/8 9/10/10 101/9/9
f 9/10/10 11/12/12 102/11/11
f 11/12/12 13/14/14 103/13/13
f 13/14/14 15/16/16 104/15/15
f 15/16/16 17/18/18 105/17/17
f 106/20/20 105/17/17 19/19/19
f 107/22/22 106/20/20 21/21/21
f 108/24/24 107/22/22 23/23/23
f 109/26/26 108/24/24 25/25/25
f 110/28/28 109/26/26 27/27/27
f 111/30/30 110/28/28 29/29/29
f 112/32/32 111/30/30 31/31/31
f 113/34/34 112/32/32 33/33/33
f 114/36/36 113/34/34 35/35/35
f 115/38/38 114/36/36 37/37/37
f 116/40/40 115/38/38 39/39/39
f 117/42/42 116/40/40 41/41/41
f 118/44/44 117/42/42 43/43/43
f 119/46/46 118/44/44 45/45/45
f 120/48/48 119/46/46 47/47/47
f 121/50/50 120/48/48 49/49/49
f 49/49/49 51/52/52 122/51/51
f 51/52/52 53/54/54 123/53/53
f 53/54/54 57/56/56 124/55/55
f 57/56/56 65/58/58 125/57/57
f 65/58/58 73/60/60 126/59/59
f 73/60/60 81/62/62 127/61/61
f 81/62/62 89/115/115 128/63/63
f 55/125/125 90/64/64 96/66/66
f 79/87/87 28/67/67 78/69/69
f 4/70/70 95/108/108 96/66/66
f 84/75/75 22/71/71 83/73/73
f 85/77/77 20/74/74 84/75/75
f 86/126/126 18/76/76 85/77/77
f 8/79/79 93/110/110 94/80/80
f 82/82/82 56/124/124 59/83/83
f 74/81/81 59/83/83 60/85/85
f 80/112/112 26/86/86 79/87/87
f 76/92/92 34/88/88 75/90/90
f 77/127/127 32/91/91 76/92/92
f 32/91/91 77/127/127 78/69/69
f 69/109/109 44/93/93 68/95/95
f 12/97/97 91/118/118 92/98/98
f 71/128/128 40/99/99 70/101/101
f 52/103/103 63/123/123 64/104/104
f 40/99/99 71/128/128 72/106/106
f 67/111/111 48/107/107 64/104/104
f 75/90/90 36/89/89 72/106/106
f 6/78/78 94/80/80 95/108/108
f 70/101/101 42/100/100 69/109/109
f 10/96/96 92/98/98 93/110/110
f 68/95/95 46/94/94 67/111/111
f 83/73/73 24/72/72 80/112/112
f 18/76/76 86/126/126 87/114/114
f 89/115/115 1/2/2 97/1/1
f 16/113/113 87/114/114 88/117/117
f 14/116/116 88/117/117 91/118/118
f 66/84/84 60/85/85 61/120/120
f 58/119/119 61/120/120 62/122/122
f 54/121/121 62/122/122 63/123/123
f 3/4/4 1/2/2 7/8/8
f 1/2/2 89/115/115 7/8/8
f 89/115/115 81/62/62 7/8/8
f 81/62/62 73/60/60 7/8/8
f 73/60/60 65/58/58 7/8/8
f 65/58/58 57/56/56 7/8/8
f 57/56/56 53/54/54 7/8/8
f 53/54/54 51/52/52 7/8/8
f 51/52/52 49/49/49 7/8/8
f 49/49/49 47/47/47 7/8/8
f 47/47/47 45/45/45 7/8/8
f 45/45/45 43/43/43 7/8/8
f 43/43/43 41/41/41 7/8/8
f 41/41/41 39/39/39 7/8/8
f 39/39/39 37/37/37 7/8/8
f 37/37/37 35/35/35 7/8/8
f 35/35/35 33/33/33 7/8/8
f 33/33/33 31/31/31 7/8/8
f 31/31/31 29/29/29 7/8/8
f 29/29/29 27/27/27 7/8/8
f 27/27/27 25/25/25 7/8/8
f 25/25/25 23/23/23 7/8/8
f 23/23/23 21/21/21 7/8/8
f 21/21/21 19/19/19 7/8/8
f 19/19/19 17/18/18 7/8/8
f 17/18/18 15/16/16 7/8/8
f 15/16/16 13/14/14 7/8/8
f 13/14/14 11/12/12 7/8/8
f 11/12/12 9/10/10 7/8/8
f 90/64/64 55/125/125 56/124/124
f 97/1/1 98/3/3 4/70/70
f 98/3/3 99/5/5 6/78/78
f 99/5/5 100/7/7 8/79/79
f 100/7/7 101/9/9 10/96/96
f 101/9/9 102/11/11 12/97/97
f 102/11/11 103/13/13 14/116/116
f 103/13/13 104/15/15 16/113/113
f 104/15/15 105/17/17 18/76/76
f 20/74/74 18/76/76 106/20/20
f 22/71/71 20/74/74 107/22/22
f 24/72/72 22/71/71 108/24/24
f 26/86/86 24/72/72 109/26/26
f 28/67/67 26/86/86 110/28/28
f 30/68/68 28/67/67 111/30/30
f 32/91/91 30/68/68 112/32/32
f 34/88/88 32/91/91 113/34/34
f 36/89/89 34/88/88 114/36/36
f 38/105/105 36/89/89 115/38/38
f 40/99/99 38/105/105 116/40/40
f 42/100/100 40/99/99 117/42/42
f 44/93/93 42/100/100 118/44/44
f 46/94/94 44/93/93 119/46/46
f 48/107/107 46/94/94 120/48/48
f 50/102/102 48/107/107 121/50/50
f 121/50/50 122/51/51 52/103/103
f 122/51/51 123/53/53 54/121/121
f 123/53/53 124/55/55 58/119/119
f 124/55/55 125/57/57 66/84/84
f 125/57/57 126/59/59 74/81/81
f 126/59/59 127/61/61 82/82/82
f 127/61/61 128/63/63 90/64/64
f 128/63/63 97/1/1 2/65/65
